<svg width="40" height="40" viewBox="0 0 40 40" fill="none" xmlns="http://www.w3.org/2000/svg">
<path d="M9.50521 3.75H30.4948C33.6771 3.75 36.25 6.38889 36.25 9.65278V30.3472C36.25 33.6111 33.6771 36.25 30.4948 36.25H9.50521C6.32292 36.25 3.75 33.6111 3.75 30.3472V9.65278C3.75 6.38889 6.32292 3.75 9.50521 3.75Z" fill="#49021F"/>
<path fill-rule="evenodd" clip-rule="evenodd" d="M20.4468 26.3196C21.3541 26.7502 22.3562 26.9585 23.3583 26.9446C24.0625 26.9446 24.7666 26.8752 25.4437 26.7502C26.2021 26.6113 26.9468 26.3891 27.651 26.0835C27.7458 26.0419 27.7864 25.9585 27.7864 25.8613C27.7843 25.8249 27.7823 25.7875 27.7801 25.7493C27.7684 25.5393 27.7552 25.3025 27.7323 25.0558C27.731 25.0277 27.7298 24.9999 27.7285 24.9723C27.7163 24.6994 27.7052 24.4495 27.7052 24.2224V10.9724C27.6916 10.9169 27.6375 10.8613 27.5698 10.8752H24.8208C24.726 10.8752 24.6854 10.9308 24.6854 11.028V15.4169C24.6102 15.4104 24.5408 15.407 24.4759 15.4038C24.4005 15.4 24.3311 15.3966 24.2656 15.3891C24.1437 15.3752 24.0489 15.3752 23.9812 15.3752C22.6406 15.3752 21.5031 15.6391 20.5552 16.1808C19.6614 16.6808 18.9166 17.4308 18.4021 18.3335C17.901 19.2224 17.6437 20.2363 17.6573 21.2641C17.6573 22.528 17.901 23.5835 18.4021 24.4308C18.8896 25.2502 19.5937 25.9169 20.4468 26.3196ZM24.6854 18.0558V24.1669C24.5364 24.2224 24.3739 24.2502 24.1979 24.2363C24.0218 24.2502 23.8323 24.2641 23.6291 24.2641C23.25 24.2641 22.8708 24.2085 22.5052 24.0835C22.1531 23.9724 21.8416 23.778 21.5843 23.528C21.3135 23.2502 21.1104 22.9169 20.975 22.5419C20.8125 22.0835 20.7312 21.5974 20.7448 21.1113C20.7448 20.3891 20.8937 19.7919 21.1916 19.3474C21.4896 18.903 21.8823 18.5558 22.3427 18.3196C22.8166 18.0696 23.3448 17.9585 23.8729 17.9585C24.0218 17.9585 24.1708 17.9724 24.3198 17.9863C24.4416 18.0002 24.5635 18.028 24.6854 18.0558Z" fill="#FF3366"/>
<path d="M15.5584 26.5002V12.2502C15.5584 12.2363 15.5584 12.2224 15.5448 12.2085C15.5313 12.1113 15.45 12.0557 15.3688 12.0696H12.7282C12.6063 12.0696 12.5386 12.1252 12.5386 12.2502V26.5002C12.5386 26.653 12.5927 26.7224 12.7146 26.7224H15.3688C15.4907 26.7224 15.5584 26.653 15.5584 26.5002Z" fill="#FF3366"/>
</svg>
