<svg width="40" height="40" viewBox="0 0 40 40" fill="none" xmlns="http://www.w3.org/2000/svg">
<path d="M8.54159 6.6665C5.6651 6.6665 3.33325 8.99835 3.33325 11.8748V28.1248C3.33325 31.0013 5.6651 33.3332 8.54158 33.3332H31.4583C34.3347 33.3332 36.6666 31.0013 36.6666 28.1248V11.8748C36.6666 8.99835 34.3347 6.6665 31.4583 6.6665H8.54159ZM5.41659 11.8748C5.41659 10.1489 6.8157 8.74984 8.54159 8.74984H31.4583C33.1841 8.74984 34.5833 10.1489 34.5833 11.8748V28.1248C34.5833 29.8507 33.1841 31.2498 31.4583 31.2498H8.54158C6.8157 31.2498 5.41659 29.8507 5.41659 28.1248V11.8748ZM14.9999 14.9995V24.9999C14.9999 25.9488 16.0156 26.5517 16.8485 26.0973L26.0146 21.0971C26.8831 20.6233 26.8831 19.3762 26.0146 18.9024L16.8485 13.9022C16.0156 13.4478 14.9999 14.0507 14.9999 14.9995Z" fill="white"/>
</svg>
