<svg width="40" height="40" viewBox="0 0 40 40" fill="none" xmlns="http://www.w3.org/2000/svg">
<path d="M21.6667 14.5833C21.6667 12.5123 23.3456 10.8333 25.4167 10.8333C27.4877 10.8333 29.1667 12.5123 29.1667 14.5833C29.1667 16.6544 27.4877 18.3333 25.4167 18.3333C23.3456 18.3333 21.6667 16.6544 21.6667 14.5833ZM25.4167 12.9167C24.4962 12.9167 23.75 13.6629 23.75 14.5833C23.75 15.5038 24.4962 16.25 25.4167 16.25C26.3371 16.25 27.0833 15.5038 27.0833 14.5833C27.0833 13.6629 26.3371 12.9167 25.4167 12.9167ZM5 10.2083C5 7.33185 7.33185 5 10.2083 5H29.7917C32.6682 5 35 7.33185 35 10.2083V29.7917C35 32.6682 32.6682 35 29.7917 35H10.2083C7.33185 35 5 32.6682 5 29.7917V10.2083ZM10.2083 7.08333C8.48244 7.08333 7.08333 8.48244 7.08333 10.2083V29.7917C7.08333 30.3442 7.22673 30.8632 7.47834 31.3136L17.9377 20.8543C19.0767 19.7152 20.9234 19.7152 22.0625 20.8543L32.5217 31.3135C32.7733 30.8632 32.9167 30.3442 32.9167 29.7917V10.2083C32.9167 8.48244 31.5176 7.08333 29.7917 7.08333H10.2083ZM30.9549 32.693L20.5893 22.3274C20.2639 22.002 19.7363 22.002 19.4108 22.3274L9.0452 32.693C9.40471 32.8373 9.79725 32.9167 10.2083 32.9167H29.7917C30.2028 32.9167 30.5954 32.8373 30.9549 32.693Z" fill="white"/>
</svg>
