<svg width="40" height="40" viewBox="0 0 40 40" fill="none" xmlns="http://www.w3.org/2000/svg">
<path d="M8.33325 7.70817C8.33325 7.13287 8.79962 6.6665 9.37492 6.6665H30.6249C31.2002 6.6665 31.6666 7.13287 31.6666 7.70817V11.6665C31.6666 12.2418 31.2002 12.7082 30.6249 12.7082C30.0496 12.7082 29.5833 12.2418 29.5833 11.6665V8.74984H21.0416V31.2498H23.9583C24.5335 31.2498 24.9999 31.7162 24.9999 32.2915C24.9999 32.8668 24.5335 33.3332 23.9583 33.3332H16.0416C15.4663 33.3332 14.9999 32.8668 14.9999 32.2915C14.9999 31.7162 15.4663 31.2498 16.0416 31.2498H18.9583V8.74984H10.4166V11.6665C10.4166 12.2418 9.95022 12.7082 9.37492 12.7082C8.79962 12.7082 8.33325 12.2418 8.33325 11.6665V7.70817Z" fill="white"/>
</svg>
