<svg width="40" height="40" viewBox="0 0 40 40" fill="none" xmlns="http://www.w3.org/2000/svg">
<path d="M7.91667 36.6668H32.0833C32.3125 36.6668 32.5 36.4793 32.5 36.2502V11.6668H25.4167C24.7275 11.6668 24.1667 11.106 24.1667 10.4168V3.3335H7.91667C7.6875 3.3335 7.5 3.521 7.5 3.75016V36.2502C7.5 36.4793 7.6875 36.6668 7.91667 36.6668Z" fill="white"/>
<path d="M31.9108 10.8332L25 3.92236V10.4165C25 10.6457 25.1875 10.8332 25.4167 10.8332H31.9108Z" fill="white"/>
<path opacity="0.67" fill-rule="evenodd" clip-rule="evenodd" d="M32.9667 10.7117L25.1217 2.86583C24.8869 2.63242 24.5695 2.50098 24.2384 2.5H7.91675C7.22758 2.5 6.66675 3.06083 6.66675 3.75V36.25C6.66675 36.9392 7.22758 37.5 7.91675 37.5H32.0834C32.7726 37.5 33.3334 36.9392 33.3334 36.25V11.595C33.3334 11.2617 33.2034 10.9475 32.9667 10.7117ZM25 3.92253L31.9108 10.8334H25.4167C25.1867 10.8329 25.0005 10.6466 25 10.4167V3.92253ZM7.91667 36.6667H32.0833C32.3125 36.6667 32.5 36.4792 32.5 36.25V11.6667H25.4167C24.7275 11.6667 24.1667 11.1058 24.1667 10.4167V3.33333H7.91667C7.6875 3.33333 7.5 3.52083 7.5 3.75V36.25C7.50046 36.4799 7.68674 36.6662 7.91667 36.6667Z" fill="#605E5C"/>
<path fill-rule="evenodd" clip-rule="evenodd" d="M10.4167 14.9998H29.5833C29.8135 14.9998 30 14.8133 30 14.5832C30 14.3531 29.8135 14.1665 29.5833 14.1665H10.4167C10.1865 14.1665 10 14.3531 10 14.5832C10 14.8133 10.1865 14.9998 10.4167 14.9998ZM10.4167 17.5H29.5833C29.8135 17.5 30 17.3135 30 17.0833C30 16.8532 29.8135 16.6667 29.5833 16.6667H10.4167C10.1865 16.6667 10 16.8532 10 17.0833C10 17.3135 10.1865 17.5 10.4167 17.5ZM29.5833 20H10.4167C10.1865 20 10 19.8135 10 19.5833C10 19.3532 10.1865 19.1667 10.4167 19.1667H29.5833C29.8135 19.1667 30 19.3532 30 19.5833C30 19.8135 29.8135 20 29.5833 20ZM10.4167 22.5H29.5833C29.8135 22.5 30 22.3135 30 22.0833C30 21.8532 29.8135 21.6667 29.5833 21.6667H10.4167C10.1865 21.6667 10 21.8532 10 22.0833C10 22.3135 10.1865 22.5 10.4167 22.5Z" fill="#C8C6C4"/>
<path fill-rule="evenodd" clip-rule="evenodd" d="M23.3333 34.1668H16.6667C15.7462 34.1668 15 33.4206 15 32.5002V27.5002C15 26.5797 15.7462 25.8335 16.6667 25.8335H23.3333C24.2538 25.8335 25 26.5797 25 27.5002V32.5002C25 33.4206 24.2538 34.1668 23.3333 34.1668Z" stroke="#D65532" stroke-width="1.66667" stroke-linecap="round" stroke-linejoin="round"/>
<path fill-rule="evenodd" clip-rule="evenodd" d="M12.2916 33.3333H6.66659C6.20635 33.3333 5.83325 32.9602 5.83325 32.5V28.3333C5.83325 27.8731 6.20635 27.5 6.66659 27.5H12.2916C12.4066 27.5 12.4999 27.5933 12.4999 27.7083V33.125C12.4999 33.2401 12.4066 33.3333 12.2916 33.3333ZM27.7083 27.5H33.3333C33.7936 27.5 34.1667 27.8731 34.1667 28.3333V32.5C34.1667 32.9602 33.7936 33.3333 33.3333 33.3333H27.7083C27.5933 33.3333 27.5 33.24 27.5 33.125V27.7083C27.5 27.5933 27.5933 27.5 27.7083 27.5Z" fill="#D65532"/>
</svg>
