<svg width="40" height="40" viewBox="0 0 40 40" fill="none" xmlns="http://www.w3.org/2000/svg">
<path d="M20.9008 5.34862C21.8397 4.50581 23.3333 5.17214 23.3333 6.43385V33.5659C23.3333 34.8276 21.8397 35.494 20.9008 34.6512L14.0625 28.5126C13.3362 27.8606 12.3945 27.4999 11.4183 27.4999H7.5C5.08375 27.4999 3.125 25.5411 3.125 23.1249V16.8749C3.125 14.4586 5.08375 12.4999 7.5 12.4999H11.4183C12.3945 12.4999 13.3362 12.1392 14.0625 11.4872L20.9008 5.34862ZM21.25 7.83477L15.4542 13.0375C14.3455 14.0327 12.9082 14.5832 11.4183 14.5832H7.5C6.23435 14.5832 5.20833 15.6092 5.20833 16.8749V23.1249C5.20833 24.3905 6.23435 25.4166 7.5 25.4166H11.4183C12.9082 25.4166 14.3455 25.9671 15.4542 26.9623L21.25 32.165V7.83477ZM30.2814 6.99625C30.6746 6.57631 31.3338 6.55465 31.7537 6.94786L31.7544 6.94856C31.7544 6.94856 31.4729 6.66656 31.7626 6.95625L31.778 6.97103C31.7904 6.98303 31.8071 6.99929 31.8277 7.0198C31.869 7.06082 31.9261 7.11887 31.9967 7.19382C32.1379 7.34368 32.3336 7.56136 32.5654 7.84581C33.0287 8.41436 33.638 9.25201 34.245 10.3501C35.4604 12.5489 36.6667 15.7937 36.6667 19.9999C36.6667 24.2061 35.4604 27.4509 34.245 29.6497C33.638 30.7478 33.0287 31.5854 32.5654 32.154C32.3336 32.4384 32.1379 32.6561 31.9967 32.806C31.9761 32.8278 31.9567 32.8482 31.9385 32.8671C31.8942 32.9133 31.857 32.9509 31.8277 32.98C31.8071 33.0005 31.7904 33.0168 31.778 33.0288L31.7626 33.0435L31.7573 33.0485L31.7553 33.0504L31.7544 33.0512C31.7544 33.0512 31.866 32.9396 31.9385 32.8671C32.0272 32.7785 32.0574 32.7483 31.7537 33.0519C31.3338 33.4451 30.6746 33.4235 30.2814 33.0035C29.8888 32.5843 29.9097 31.9267 30.3276 31.5332L30.3291 31.5318L30.3317 31.5293C30.3366 31.5245 30.3457 31.5157 30.3586 31.5028C30.3845 31.4771 30.4259 31.4351 30.4806 31.3771C30.59 31.261 30.7524 31.0809 30.9503 30.838C31.3464 30.3519 31.8829 29.6166 32.4217 28.6418C33.498 26.6947 34.5834 23.7937 34.5834 19.9999C34.5834 16.2061 33.498 13.3051 32.4217 11.358C31.8829 10.3832 31.3464 9.64793 30.9503 9.1618C30.7524 8.9189 30.59 8.7388 30.4806 8.6227C30.4259 8.56468 30.3845 8.52271 30.3586 8.49696C30.3457 8.48409 30.3366 8.47527 30.3317 8.47054L30.3291 8.468L30.3276 8.46656C29.9097 8.07311 29.8888 7.41547 30.2814 6.99625ZM26.9451 11.9994C27.3365 11.5779 27.9956 11.5534 28.4172 11.9449C28.4174 11.9451 28.4178 11.9455 28.4178 11.9455L28.4186 11.9462L28.4202 11.9478L28.4244 11.9516L28.4357 11.9624C28.4447 11.971 28.4564 11.9822 28.4706 11.9961C28.499 12.024 28.5376 12.0627 28.5849 12.1119C28.6794 12.2102 28.8089 12.3511 28.9617 12.533C29.2669 12.8963 29.6674 13.4263 30.0665 14.1104C30.8645 15.4785 31.6667 17.4812 31.6667 19.9999C31.6667 22.5186 30.8645 24.5213 30.0665 25.8894C29.6674 26.5735 29.2669 27.1035 28.9617 27.4668C28.8089 27.6487 28.6794 27.7896 28.5849 27.8879C28.5376 27.9371 28.499 27.9758 28.4706 28.0036L28.4543 28.0195L28.4357 28.0374L28.4244 28.0482L28.4202 28.052L28.4179 28.0542L28.4172 28.0549C27.9956 28.4464 27.3365 28.4219 26.9451 28.0004C26.5544 27.5797 26.5779 26.9226 26.9968 26.5308L26.9982 26.5295L27.0117 26.5164C27.026 26.5024 27.0501 26.4783 27.0826 26.4445C27.1476 26.3769 27.2459 26.2704 27.3665 26.1268C27.6082 25.839 27.9369 25.4055 28.2669 24.8396C28.9273 23.7076 29.5834 22.0646 29.5834 19.9999C29.5834 17.9352 28.9273 16.2922 28.2669 15.1602C27.9369 14.5943 27.6082 14.1608 27.3665 13.873C27.2459 13.7294 27.1476 13.6229 27.0826 13.5552C27.0501 13.5214 27.026 13.4974 27.0117 13.4834L26.9978 13.4699L26.9985 13.4705C26.5775 13.079 26.5538 12.4208 26.9451 11.9994ZM31.7626 6.95625L31.7544 6.94856L31.7553 6.94936L31.7573 6.95125L31.7626 6.95625ZM28.4172 11.9449L28.4706 11.9961C28.3912 11.9219 28.4142 11.9422 28.4172 11.9449Z" fill="white"/>
</svg>
