<svg width="40" height="40" viewBox="0 0 40 40" fill="none" xmlns="http://www.w3.org/2000/svg">
<g clip-path="url(#clip0_4073_4848)">
<path d="M35 5H1.66667C0.746192 5 0 5.74619 0 6.66667V33.3333C0 34.2538 0.746192 35 1.66667 35H35C35.9205 35 36.6667 34.2538 36.6667 33.3333V6.66667C36.6667 5.74619 35.9205 5 35 5Z" fill="url(#paint0_linear_4073_4848)"/>
<path d="M5.74992 15.6877C6.95408 15.6605 8.12349 16.0925 9.02075 16.8961C9.87492 17.6044 12.7062 20.3394 13.2499 20.9794C13.6818 21.5562 14.3071 21.9579 15.0112 22.111C15.7153 22.264 16.4509 22.1581 17.0833 21.8127C17.6041 21.5211 17.8648 21.4087 18.0306 21.3172C18.1197 21.2734 18.2191 21.255 18.318 21.264C18.4169 21.2731 18.5113 21.3093 18.5909 21.3687C18.751 21.4887 18.7096 21.7884 18.6367 21.9519C18.3188 22.7871 17.7554 23.5065 17.0207 24.0153C16.286 24.5241 15.4144 24.7985 14.5208 24.8023C13.349 24.8093 12.217 24.3784 11.3464 23.5943C9.83179 22.1914 8.38886 20.7132 7.02302 19.1653C6.7722 18.8421 6.45051 18.5808 6.08274 18.4016C5.71498 18.2224 5.31098 18.1301 4.90189 18.1317C4.12882 18.1505 3.38457 18.4289 2.78899 18.9221C2.51982 19.1106 2.23691 19.2786 1.94262 19.4247C1.85873 19.4607 1.76577 19.47 1.67643 19.4512C1.58709 19.4324 1.50571 19.3866 1.44339 19.3199C1.20062 19.0357 1.42522 18.7582 1.50522 18.6191C1.86777 17.7824 2.45773 17.0642 3.20807 16.546C3.95841 16.0278 4.83904 15.7305 5.74992 15.6877Z" fill="white"/>
<path opacity="0.3" d="M36.6667 6.6667V8.9667L24.8332 20.7834C24.8143 20.804 24.7917 20.821 24.7665 20.8334C24.7375 20.8613 24.7038 20.8839 24.6669 20.9L20.267 21.85C20.1985 21.8638 20.1273 21.855 20.0642 21.825C20.001 21.7949 19.9493 21.7452 19.9167 21.6834L19.8834 21.6167L18.8502 21.6834C18.7652 21.6836 18.6819 21.6593 18.6103 21.6134C18.5387 21.5675 18.4819 21.5019 18.4467 21.4245C18.4114 21.3471 18.3993 21.2611 18.4117 21.177C18.4241 21.0929 18.4605 21.0141 18.5166 20.9501L19.2502 20.2167L19.2169 20.1502C19.1924 20.0863 19.1889 20.0163 19.2069 19.9504C19.2249 19.8844 19.2635 19.8259 19.317 19.7833L20.2337 18.0168L21.4333 17.6833C21.4584 17.6462 21.4807 17.6072 21.4999 17.5667L21.5666 17.5L34.0666 5H35C35.4417 5.00127 35.8649 5.17727 36.1772 5.48957C36.4895 5.80186 36.6655 6.22506 36.6667 6.6667Z" fill="black"/>
<path d="M20.648 20.8411L18.9346 21.6338C18.8554 21.6612 18.77 21.6657 18.6883 21.6469C18.6066 21.628 18.5318 21.5866 18.4725 21.5273C18.4132 21.468 18.3718 21.3933 18.353 21.3116C18.3341 21.2299 18.3387 21.1445 18.366 21.0652L19.1588 19.3518L20.648 20.8411Z" fill="#1E2021"/>
<path d="M23.6669 19.6096L39.9217 3.35485C39.9735 3.29077 40.0014 3.21059 40.0006 3.12814C39.9997 3.04569 39.97 2.96613 39.9168 2.90319C39.1512 1.80371 38.1964 0.848927 37.097 0.0833208C37.0341 0.0300592 36.9545 0.000427059 36.872 -0.000467423C36.7896 -0.0013619 36.7094 0.0265374 36.6453 0.0784208L20.3905 16.3332C20.3694 16.3548 20.3498 16.3779 20.332 16.4024L21.3532 18.5881L23.5977 19.6681C23.6222 19.6503 23.6453 19.6307 23.6669 19.6096Z" fill="#333333"/>
<path d="M20.332 16.4026C20.3077 16.4346 20.2865 16.4688 20.2685 16.5047L19.458 18.1598L18.7113 19.6834C18.6773 19.7418 18.6625 19.8094 18.669 19.8766C18.6754 19.9439 18.7028 20.0074 18.7472 20.0583L19.9419 21.2534C19.9929 21.2976 20.0564 21.3248 20.1236 21.3313C20.1908 21.3377 20.2583 21.323 20.3167 21.2893L21.8407 20.542L23.4956 19.7319C23.5317 19.7142 23.5659 19.6927 23.5976 19.668L21.9209 17.9913L20.332 16.4026Z" fill="#CCCCCC"/>
</g>
<defs>
<linearGradient id="paint0_linear_4073_4848" x1="32.9438" y1="45.3061" x2="11.398" y2="7.98775" gradientUnits="userSpaceOnUse">
<stop offset="0.09649" stop-color="#30E5D0"/>
<stop offset="1" stop-color="#0C34FB"/>
</linearGradient>
<clipPath id="clip0_4073_4848">
<rect width="40" height="40" fill="white"/>
</clipPath>
</defs>
</svg>
