<svg width="40" height="40" viewBox="0 0 40 40" fill="none" xmlns="http://www.w3.org/2000/svg">
<path d="M9.50521 3.75H30.4948C33.6771 3.75 36.25 6.38889 36.25 9.65278V30.3472C36.25 33.6111 33.6771 36.25 30.4948 36.25H9.50521C6.32292 36.25 3.75 33.6111 3.75 30.3472V9.65278C3.75 6.38889 6.32292 3.75 9.50521 3.75Z" fill="#001E36"/>
<path fill-rule="evenodd" clip-rule="evenodd" d="M11.0625 12.2498V26.5415C11.0625 26.6665 11.1167 26.722 11.225 26.722H13.8521C13.9469 26.7081 14.0146 26.6248 14.001 26.5276V22.0692C14.2583 22.0692 14.4479 22.0692 14.5833 22.0831C14.7187 22.097 14.9354 22.097 15.2604 22.097C16.3708 22.097 17.3865 21.972 18.3073 21.6248C19.1875 21.2914 19.9458 20.7081 20.4875 19.9303C21.0292 19.1526 21.3 18.1664 21.3 16.972C21.3 16.347 21.1917 15.7498 20.9885 15.1664C20.7719 14.5692 20.4333 14.0276 20 13.5831C19.4854 13.0692 18.8625 12.6803 18.1854 12.4442C17.4271 12.1526 16.5062 12.0137 15.3958 12.0137C14.9896 12.0137 14.5833 12.0137 14.1635 12.0276C13.9609 12.0343 13.7645 12.0377 13.5745 12.0411C13.3709 12.0447 13.1745 12.0482 12.9854 12.0553C12.8081 12.0621 12.6371 12.0655 12.471 12.0689C12.2946 12.0725 12.1236 12.076 11.9562 12.0831C11.6448 12.097 11.4281 12.097 11.1979 12.097C11.1031 12.097 11.0625 12.1526 11.0625 12.2498ZM14.0146 19.4442V14.7776C14.1094 14.7637 14.299 14.7498 14.5698 14.7637C14.8271 14.7498 15.1385 14.7498 15.4906 14.7498C16.0458 14.7359 16.5875 14.8192 17.0885 15.0276C17.4812 15.1803 17.8062 15.4581 18.0365 15.8192C18.2531 16.1942 18.3615 16.6248 18.3479 17.0553C18.3479 17.6665 18.2125 18.1387 17.9281 18.4859C17.6302 18.8331 17.251 19.097 16.8177 19.222C16.3167 19.3887 15.7885 19.472 15.2604 19.472H14.5427C14.3919 19.472 14.2294 19.46 14.0552 19.4472C14.0417 19.4462 14.0282 19.4452 14.0146 19.4442Z" fill="#31A8FF"/>
<path d="M28.4499 18.1248C28.9103 18.222 29.3437 18.3748 29.7499 18.597C29.8041 18.6248 29.8718 18.6248 29.9937 18.597C30.0343 18.5693 30.0614 18.5137 30.0614 18.4581V16.1943C30.0614 16.1387 30.0478 16.0831 30.0343 16.0276C30.0072 15.972 29.953 15.9165 29.8989 15.9026C29.5333 15.7498 29.1405 15.6387 28.7343 15.5831C28.1791 15.4998 27.6103 15.4581 27.0551 15.4581C26.0937 15.4581 25.2947 15.6109 24.6582 15.9443C24.076 16.222 23.5749 16.6665 23.2364 17.222C22.9385 17.7359 22.776 18.3054 22.776 18.9026C22.7624 19.3887 22.8707 19.8748 23.0874 20.3193C23.3447 20.7915 23.6968 21.1943 24.1166 21.4998C24.7124 21.9165 25.3489 22.2498 26.0395 22.4998C26.703 22.7637 27.1499 22.972 27.3666 23.1526C27.5832 23.3331 27.6916 23.5137 27.6916 23.7081C27.6916 23.9581 27.5426 24.1943 27.326 24.2915C27.0822 24.4165 26.7166 24.4859 26.202 24.4859C25.6603 24.4859 25.1187 24.4165 24.6041 24.2776C24.0082 24.1387 23.453 23.9165 22.9249 23.597C22.8843 23.5693 22.8437 23.5554 22.803 23.5831C22.7624 23.6109 22.7489 23.6665 22.7489 23.7081V26.1248C22.7353 26.2359 22.803 26.3331 22.8978 26.3887C23.3312 26.597 23.8051 26.7498 24.2791 26.8331C24.8885 26.9581 25.4978 27.0137 26.1207 27.0137C27.0957 27.0137 27.9082 26.8609 28.5718 26.5693C29.1812 26.3193 29.7093 25.8887 30.0885 25.3331C30.4405 24.7915 30.6301 24.1387 30.6166 23.4859C30.6301 22.9859 30.5218 22.4998 30.3051 22.0554C30.0478 21.5831 29.6822 21.1943 29.2353 20.9026C28.5853 20.4859 27.8812 20.1387 27.1499 19.8887C26.8249 19.7498 26.4999 19.597 26.1885 19.4304C26.0124 19.3331 25.8499 19.2081 25.728 19.0554C25.6468 18.9443 25.5926 18.8193 25.5926 18.6943C25.5926 18.5693 25.6332 18.4304 25.701 18.3193C25.7957 18.1804 25.9447 18.0831 26.1207 18.0415C26.378 17.972 26.6624 17.9304 26.9332 17.9443C27.4478 17.9443 27.9489 18.0137 28.4499 18.1248Z" fill="#31A8FF"/>
</svg>
