<svg width="40" height="40" viewBox="0 0 40 40" fill="none" xmlns="http://www.w3.org/2000/svg">
<path d="M13.4426 31.5719L24.2759 7.40525C24.5583 6.77529 25.2979 6.49354 25.9279 6.77593C26.5054 7.03479 26.7902 7.67784 26.6162 8.26844L26.5572 8.42789L15.7239 32.5946C15.4415 33.2245 14.7019 33.5063 14.0719 33.2239C13.4945 32.965 13.2096 32.322 13.3836 31.7314L13.4426 31.5719L24.2759 7.40525L13.4426 31.5719ZM3.69937 19.116L10.7827 12.0327C11.2709 11.5445 12.0623 11.5445 12.5505 12.0327C12.9942 12.4765 13.0346 13.1709 12.6715 13.6603L12.5505 13.8005L6.35102 19.9999L12.5505 26.1994C13.0386 26.6875 13.0386 27.479 12.5505 27.9671C12.1067 28.4109 11.4123 28.4512 10.9229 28.0882L10.7827 27.9671L3.69937 20.8838C3.25559 20.44 3.21525 19.7456 3.57834 19.2562L3.69937 19.116L10.7827 12.0327L3.69937 19.116ZM27.4494 12.0327C27.8931 11.5889 28.5876 11.5486 29.0769 11.9117L29.2171 12.0327L36.3005 19.116C36.7442 19.5598 36.7846 20.2542 36.4215 20.7436L36.3005 20.8838L29.2171 27.9671C28.729 28.4553 27.9375 28.4553 27.4494 27.9671C27.0056 27.5233 26.9652 26.8289 27.3283 26.3396L27.4494 26.1994L33.6488 19.9999L27.4494 13.8005C26.9612 13.3123 26.9612 12.5208 27.4494 12.0327Z" fill="white"/>
</svg>
