<svg width="40" height="40" viewBox="0 0 40 40" fill="none" xmlns="http://www.w3.org/2000/svg">
<path d="M19.9999 10.8335C20.5752 10.8335 21.0416 11.2999 21.0416 11.8752V22.2918C21.0416 22.8671 20.5752 23.3335 19.9999 23.3335C19.4246 23.3335 18.9582 22.8671 18.9582 22.2918V11.8752C18.9582 11.2999 19.4246 10.8335 19.9999 10.8335ZM19.9999 28.3335C20.9204 28.3335 21.6666 27.5873 21.6666 26.6668C21.6666 25.7464 20.9204 25.0002 19.9999 25.0002C19.0794 25.0002 18.3332 25.7464 18.3332 26.6668C18.3332 27.5873 19.0794 28.3335 19.9999 28.3335ZM3.33325 20.0002C3.33325 10.7954 10.7952 3.3335 19.9999 3.3335C29.2047 3.3335 36.6666 10.7954 36.6666 20.0002C36.6666 29.2049 29.2047 36.6668 19.9999 36.6668C10.7952 36.6668 3.33325 29.2049 3.33325 20.0002ZM19.9999 5.41683C11.9458 5.41683 5.41658 11.946 5.41658 20.0002C5.41658 28.0543 11.9458 34.5835 19.9999 34.5835C28.0541 34.5835 34.5832 28.0543 34.5832 20.0002C34.5832 11.946 28.0541 5.41683 19.9999 5.41683Z" fill="white"/>
</svg>
