<svg width="40" height="40" viewBox="0 0 40 40" fill="none" xmlns="http://www.w3.org/2000/svg">
<path d="M9.50521 3.75H30.4948C33.6771 3.75 36.25 6.38889 36.25 9.65278V30.3472C36.25 33.6111 33.6771 36.25 30.4948 36.25H9.50521C6.32292 36.25 3.75 33.6111 3.75 30.3472V9.65278C3.75 6.38889 6.32292 3.75 9.50521 3.75Z" fill="#330000"/>
<path d="M25.5385 13.958C25.8635 14.2775 26.2968 14.458 26.7437 14.4441C27.2041 14.4719 27.6645 14.2913 27.976 13.958C28.301 13.6108 28.4635 13.1525 28.45 12.6802C28.4635 12.2219 28.301 11.7775 28.0031 11.4441C27.7052 11.1247 27.2989 10.958 26.7708 10.958C26.3239 10.958 25.8906 11.1247 25.5656 11.4441C25.2406 11.7636 25.0645 12.208 25.0781 12.6802C25.0645 13.1525 25.227 13.6108 25.5385 13.958Z" fill="#FF9A00"/>
<path d="M25.227 15.8052V26.4997C25.227 26.6386 25.2948 26.7219 25.4302 26.7219H28.0843C28.2062 26.7219 28.2604 26.6525 28.2604 26.4997V15.8052C28.2604 15.6802 28.2062 15.6108 28.0843 15.6108H25.4031C25.2812 15.6108 25.227 15.6663 25.227 15.8052Z" fill="#FF9A00"/>
<path fill-rule="evenodd" clip-rule="evenodd" d="M14.4614 23.2496H19.4989L20.6093 26.5552C20.6364 26.6524 20.7312 26.7219 20.826 26.708H23.6562C23.7916 26.708 23.8323 26.6385 23.7916 26.4858L18.8489 12.1802C18.8354 12.1108 18.7812 12.0691 18.6729 12.0691H15.1656C15.0979 12.083 15.0437 12.1524 15.0573 12.2219C15.0573 12.5274 15.0302 12.833 14.976 13.1247C14.9376 13.2427 14.906 13.3538 14.8764 13.458C14.8643 13.5008 14.8524 13.5425 14.8406 13.583L10.4802 26.458C10.4395 26.6246 10.4802 26.708 10.6291 26.708H13.175C13.2968 26.7219 13.4052 26.6385 13.4323 26.5135L14.4614 23.2496ZM18.6864 20.4302H15.2468C15.45 19.8469 15.6531 19.1941 15.8427 18.4858C15.9768 18.0558 16.1058 17.6259 16.2327 17.2025C16.3108 16.9421 16.3882 16.6841 16.4656 16.4302C16.6552 15.833 16.8041 15.2358 16.926 14.6385H16.9531C17.0059 14.8244 17.0588 15.0188 17.114 15.2219C17.1578 15.3831 17.2031 15.5498 17.251 15.7219C17.3593 16.1246 17.4812 16.5274 17.6166 16.958C17.6843 17.1733 17.7487 17.3851 17.813 17.5969C17.8773 17.8087 17.9416 18.0205 18.0093 18.2358C18.1312 18.6524 18.2531 19.0552 18.375 19.4302C18.4968 19.7913 18.6052 20.1385 18.6864 20.4302Z" fill="#FF9A00"/>
</svg>
