<svg width="40" height="35" viewBox="0 0 40 35" fill="none" xmlns="http://www.w3.org/2000/svg">
<path fill-rule="evenodd" clip-rule="evenodd" d="M8.72648 1.14513L19.9984 0L31.2711 1.14513L39.9984 12.4029L19.9992 34.783L0 12.4029L8.72648 1.14513Z" fill="#FDB300"/>
<path fill-rule="evenodd" clip-rule="evenodd" d="M8.10097 12.5381L19.9992 34.7828L0 12.5381H8.10097Z" fill="#EA6C00"/>
<path fill-rule="evenodd" clip-rule="evenodd" d="M31.8998 12.5381L20.0008 34.7828L40 12.5381H31.8998Z" fill="#EA6C00"/>
<path fill-rule="evenodd" clip-rule="evenodd" d="M7.91968 12.5381H31.6688L19.7943 34.7828L7.91968 12.5381Z" fill="#FDAD00"/>
<path fill-rule="evenodd" clip-rule="evenodd" d="M19.586 0L8.53336 1.15737L7.91968 12.5383L19.586 0Z" fill="#FDD231"/>
<path fill-rule="evenodd" clip-rule="evenodd" d="M19.996 0L31.0487 1.15737L31.6624 12.5383L19.996 0Z" fill="#FDD231"/>
<path fill-rule="evenodd" clip-rule="evenodd" d="M40 12.5385L31.2499 1.21338L31.8777 12.5385H40Z" fill="#FDAD00"/>
<path fill-rule="evenodd" clip-rule="evenodd" d="M0 12.5385L8.74936 1.21338L8.12147 12.5385H0Z" fill="#FDAD00"/>
<path fill-rule="evenodd" clip-rule="evenodd" d="M19.7943 0L7.91968 12.5383H31.6688L19.7943 0Z" fill="#FEEEB7"/>
</svg>
