<svg width="40" height="40" viewBox="0 0 40 40" fill="none" xmlns="http://www.w3.org/2000/svg">
<path d="M33.6084 11.6663H20.5584C19.7898 11.6663 19.1667 12.2893 19.1667 13.0579V26.1079C19.1667 26.8765 19.7898 27.4996 20.5584 27.4996H33.6084C34.377 27.4996 35.0001 26.8765 35.0001 26.1079V13.0579C35.0001 12.2893 34.377 11.6663 33.6084 11.6663Z" fill="#2B7CD3"/>
<path d="M18.5462 3.76283L12.0939 10.2152C11.5211 10.7879 11.5211 11.7166 12.0939 12.2894L18.5462 18.7417C19.119 19.3145 20.0476 19.3145 20.6204 18.7417L27.0728 12.2894C27.6455 11.7166 27.6455 10.7879 27.0728 10.2152L20.6204 3.76283C20.0476 3.19006 19.119 3.19006 18.5462 3.76283Z" fill="#41A5EE"/>
<path d="M19.5834 35.0001C23.9557 35.0001 27.5001 31.4557 27.5001 27.0834C27.5001 22.7112 23.9557 19.1667 19.5834 19.1667C15.2112 19.1667 11.6667 22.7112 11.6667 27.0834C11.6667 31.4557 15.2112 35.0001 19.5834 35.0001Z" fill="#103F91"/>
<mask id="mask0_4071_5443" style="mask-type:alpha" maskUnits="userSpaceOnUse" x="11" y="3" width="25" height="32">
<path d="M33.6109 11.6661H20.5609C19.7923 11.6661 19.1692 12.2891 19.1692 13.0577V26.1077C19.1692 26.8763 19.7923 27.4994 20.5609 27.4994H33.6109C34.3795 27.4994 35.0025 26.8763 35.0025 26.1077V13.0577C35.0025 12.2891 34.3795 11.6661 33.6109 11.6661Z" fill="#2B7CD3"/>
<path d="M18.5487 3.76283L12.0963 10.2152C11.5236 10.7879 11.5236 11.7166 12.0963 12.2894L18.5487 18.7417C19.1214 19.3145 20.0501 19.3145 20.6229 18.7417L27.0752 12.2894C27.648 11.7166 27.648 10.7879 27.0752 10.2152L20.6229 3.76283C20.0501 3.19006 19.1214 3.19006 18.5487 3.76283Z" fill="#41A5EE"/>
<path d="M19.5859 34.9999C23.9581 34.9999 27.5025 31.4555 27.5025 27.0833C27.5025 22.711 23.9581 19.1666 19.5859 19.1666C15.2136 19.1666 11.6692 22.711 11.6692 27.0833C11.6692 31.4555 15.2136 34.9999 19.5859 34.9999Z" fill="#103F91"/>
</mask>
<g mask="url(#mask0_4071_5443)">
<g filter="url(#filter0_f_4071_5443)">
<rect x="3.33325" y="13.3333" width="16.6667" height="15.8333" rx="1.45833" fill="#242424"/>
</g>
</g>
<path d="M18.6083 11.6743H4.72492C3.95632 11.6743 3.33325 12.2974 3.33325 13.066V26.9493C3.33325 27.7179 3.95632 28.341 4.72492 28.341H18.6083C19.3769 28.341 19.9999 27.7179 19.9999 26.9493V13.066C19.9999 12.2974 19.3769 11.6743 18.6083 11.6743Z" fill="url(#paint0_linear_4071_5443)"/>
<path d="M11.2083 21.4662C11.4666 22.2162 11.6166 22.6912 11.6583 22.8912H11.6916C11.7416 22.6912 11.9 22.1829 12.1833 21.3662L14.2 15.4912H16.0583L12.6333 24.5162H10.6416L7.2583 15.4912H9.17496L11.2 21.4662H11.2083Z" fill="white"/>
<defs>
<filter id="filter0_f_4071_5443" x="1.24992" y="11.2499" width="20.8334" height="19.9999" filterUnits="userSpaceOnUse" color-interpolation-filters="sRGB">
<feFlood flood-opacity="0" result="BackgroundImageFix"/>
<feBlend mode="normal" in="SourceGraphic" in2="BackgroundImageFix" result="shape"/>
<feGaussianBlur stdDeviation="1.04167" result="effect1_foregroundBlur_4071_5443"/>
</filter>
<linearGradient id="paint0_linear_4071_5443" x1="-63.2449" y1="8.77327" x2="-55.0886" y2="22.9035" gradientUnits="userSpaceOnUse">
<stop stop-color="#2368C4"/>
<stop offset="0.5" stop-color="#1A5DBE"/>
<stop offset="1" stop-color="#1146AC"/>
</linearGradient>
</defs>
</svg>
