<svg width="40" height="40" viewBox="0 0 40 40" fill="none" xmlns="http://www.w3.org/2000/svg">
<path d="M18.3333 10L16.81 8.47667C16.1848 7.8513 15.3368 7.49997 14.4525 7.5H4.58333C3.43274 7.5 2.5 8.43274 2.5 9.58333V30.4167C2.5 31.5673 3.43274 32.5 4.58333 32.5H35.4167C36.5673 32.5 37.5 31.5673 37.5 30.4167V12.0833C37.5 10.9327 36.5673 10 35.4167 10H18.3333Z" fill="#FFB900"/>
<path d="M18.3333 10L16.6875 11.6458C16.1405 12.1928 15.3986 12.5001 14.625 12.5H2.5V30.4167C2.5 31.5673 3.43274 32.5 4.58333 32.5H35.4167C36.5673 32.5 37.5 31.5673 37.5 30.4167V12.0833C37.5 10.9327 36.5673 10 35.4167 10L18.3333 10Z" fill="#FFD75E"/>
<path d="M18.3333 10L16.81 11.5233C16.1848 12.1487 15.3368 12.5 14.4525 12.5H2.5V30.4167C2.5 31.5673 3.43274 32.5 4.58333 32.5H35.4167C36.5673 32.5 37.5 31.5673 37.5 30.4167V12.0833C37.5 10.9327 36.5673 10 35.4167 10L18.3333 10Z" fill="url(#paint0_linear_4075_5125)"/>
<path opacity="0.4" d="M18.3333 10L16.81 11.5233C16.1848 12.1487 15.3368 12.5 14.4525 12.5H2.5V13.3333H14.6967C15.6912 13.3333 16.6451 12.9383 17.3483 12.235L19.5833 10H18.3333Z" fill="white"/>
<path d="M4.16663 31.6666C3.60941 31.6646 3.06917 31.4746 2.6333 31.1274C2.92989 31.9496 3.70931 32.4982 4.5833 32.4999H35.4166C36.3166 32.4999 37.0758 31.9258 37.3666 31.1274C36.9425 31.4599 36.415 31.6666 35.8333 31.6666H4.16663Z" fill="#BF5712"/>
<path fill-rule="evenodd" clip-rule="evenodd" d="M16.6667 20H5C4.53976 20 4.16667 20.3731 4.16667 20.8333H5.41667C5.64679 20.8333 5.83333 21.0199 5.83333 21.25V24.5833C5.83333 24.8135 5.64679 25 5.41667 25H4.16667C4.16667 25.4602 4.53976 25.8333 5 25.8333H16.6667C17.1269 25.8333 17.5 25.4602 17.5 25V20.8333C17.5 20.3731 17.1269 20 16.6667 20ZM15.8333 24.5833C15.8333 24.8135 15.6468 25 15.4167 25H12.0833C11.8532 25 11.6667 24.8135 11.6667 24.5833V21.25C11.6667 21.0199 11.8532 20.8333 12.0833 20.8333H15.4167C15.6468 20.8333 15.8333 21.0199 15.8333 21.25V24.5833ZM3.75 25H2.5V20.8333H3.75C3.98012 20.8333 4.16667 21.0199 4.16667 21.25V24.5833C4.16667 24.8135 3.98012 25 3.75 25ZM19.5833 25C19.3532 25 19.1667 24.8135 19.1667 24.5833V21.25C19.1667 21.0199 19.3532 20.8333 19.5833 20.8333C19.8135 20.8333 20 21.0199 20 21.25V24.5833C20 24.8135 19.8135 25 19.5833 25ZM21.6667 24.5833C21.6667 24.8135 21.8532 25 22.0833 25C22.3135 25 22.5 24.8135 22.5 24.5833V21.25C22.5 21.0199 22.3135 20.8333 22.0833 20.8333C21.8532 20.8333 21.6667 21.0199 21.6667 21.25V24.5833ZM24.5833 25C24.3532 25 24.1667 24.8135 24.1667 24.5833V21.25C24.1667 21.0199 24.3532 20.8333 24.5833 20.8333C24.8135 20.8333 25 21.0199 25 21.25V24.5833C25 24.8135 24.8135 25 24.5833 25ZM26.6667 24.5833C26.6667 24.8135 26.8532 25 27.0833 25C27.3135 25 27.5 24.8135 27.5 24.5833V21.25C27.5 21.0199 27.3135 20.8333 27.0833 20.8333C26.8532 20.8333 26.6667 21.0199 26.6667 21.25V24.5833ZM29.5833 25C29.3532 25 29.1667 24.8135 29.1667 24.5833V21.25C29.1667 21.0199 29.3532 20.8333 29.5833 20.8333C29.8135 20.8333 30 21.0199 30 21.25V24.5833C30 24.8135 29.8135 25 29.5833 25ZM31.6667 24.5833C31.6667 24.8135 31.8532 25 32.0833 25C32.3135 25 32.5 24.8135 32.5 24.5833V21.25C32.5 21.0199 32.3135 20.8333 32.0833 20.8333C31.8532 20.8333 31.6667 21.0199 31.6667 21.25V24.5833ZM34.5833 25C34.3532 25 34.1667 24.8135 34.1667 24.5833V21.25C34.1667 21.0199 34.3532 20.8333 34.5833 20.8333C34.8134 20.8333 35 21.0199 35 21.25V24.5833C35 24.8135 34.8134 25 34.5833 25ZM36.6667 24.5833C36.6667 24.8135 36.8532 25 37.0833 25C37.3134 25 37.5 24.8135 37.5 24.5833V21.25C37.5 21.0199 37.3134 20.8333 37.0833 20.8333C36.8532 20.8333 36.6667 21.0199 36.6667 21.25V24.5833Z" fill="#BF5712"/>
<defs>
<linearGradient id="paint0_linear_4075_5125" x1="2.5" y1="10" x2="2.5" y2="32.5" gradientUnits="userSpaceOnUse">
<stop stop-color="white" stop-opacity="0.01"/>
<stop offset="0.999" stop-color="#FFD75E" stop-opacity="0.3"/>
</linearGradient>
</defs>
</svg>
