<svg width="40" height="40" viewBox="0 0 40 40" fill="none" xmlns="http://www.w3.org/2000/svg">
<path d="M19.9999 3.33325C14.9373 3.33325 10.8333 7.43731 10.8333 12.4999C10.8333 17.5625 14.9373 21.6666 19.9999 21.6666C25.0625 21.6666 29.1666 17.5625 29.1666 12.4999C29.1666 7.43731 25.0625 3.33325 19.9999 3.33325Z" fill="#036C70"/>
<rect x="19.1667" y="20.8333" width="1.66667" height="3.33333" fill="#1A9BA1"/>
<path d="M28.3333 12.5C23.731 12.5 20 16.231 20 20.8333C20 25.4357 23.731 29.1667 28.3333 29.1667C32.9357 29.1667 36.6667 25.4357 36.6667 20.8333C36.6667 16.231 32.9357 12.5 28.3333 12.5Z" fill="#1A9BA1"/>
<path d="M20 21.6667C15.8579 21.6667 12.5 25.0246 12.5 29.1667C12.5 33.3089 15.8579 36.6667 20 36.6667C24.1421 36.6667 27.5 33.3089 27.5 29.1667C27.5 25.0246 24.1421 21.6667 20 21.6667Z" fill="#37C6D0"/>
<mask id="mask0_4071_5432" style="mask-type:alpha" maskUnits="userSpaceOnUse" x="10" y="3" width="27" height="34">
<path fill-rule="evenodd" clip-rule="evenodd" d="M19.9999 3.33325C14.9373 3.33325 10.8333 7.43731 10.8333 12.4999C10.8333 17.5625 14.9373 21.6666 19.9999 21.6666C15.8578 21.6666 12.4999 25.0245 12.4999 29.1666C12.4999 33.3087 15.8578 36.6666 19.9999 36.6666C24.1421 36.6666 27.4999 33.3087 27.4999 29.1666C27.4999 29.1529 27.4999 29.1391 27.4998 29.1254C27.7739 29.1526 28.052 29.1666 28.3333 29.1666C32.9356 29.1666 36.6666 25.4356 36.6666 20.8333C36.6666 16.5121 33.3776 12.9591 29.1665 12.5411L29.1666 12.4999C29.1666 7.43731 25.0625 3.33325 19.9999 3.33325ZM20.0411 21.6667C20.0274 21.6666 20.0136 21.6666 19.9999 21.6666L20.0411 21.6667C20.0411 21.6668 20.0411 21.6666 20.0411 21.6667Z" fill="#37C6D0"/>
</mask>
<g mask="url(#mask0_4071_5432)">
<g opacity="0.8" filter="url(#filter0_f_4071_5432)">
<rect x="3.33325" y="13.3333" width="16.6667" height="15.8333" rx="1.45833" fill="#242424"/>
</g>
</g>
<rect x="3.33325" y="11.6667" width="16.6667" height="16.6667" rx="1.45833" fill="url(#paint0_linear_4071_5432)"/>
<path d="M8.2334 24.2811L8.98008 22.9692C9.436 23.253 9.85935 23.4507 10.2501 23.5623C10.6409 23.674 11.0736 23.7298 11.5481 23.7298C12.125 23.7298 12.5716 23.6065 12.888 23.36C13.2043 23.1134 13.3625 22.7645 13.3625 22.3132C13.3625 21.8945 13.2322 21.5665 12.9717 21.3293C12.7112 21.0873 12.2529 20.8664 11.597 20.6663C10.5595 20.3686 9.80353 19.9894 9.329 19.5288C8.85447 19.0683 8.61721 18.4658 8.61721 17.7215C8.61721 16.8887 8.92658 16.1978 9.54533 15.6489C10.1687 15.0999 11.0154 14.8254 12.0854 14.8254C12.5553 14.8254 13.0159 14.8766 13.4672 14.979C13.9184 15.0813 14.365 15.2395 14.807 15.4535L14.165 16.8143C13.7835 16.6189 13.416 16.4793 13.0624 16.3956C12.7135 16.3072 12.3623 16.263 12.0087 16.263C11.483 16.263 11.0713 16.377 10.7735 16.6049C10.4758 16.8329 10.3269 17.1539 10.3269 17.5679C10.3269 17.9401 10.4618 18.2332 10.7316 18.4472C11.0061 18.6566 11.4807 18.8636 12.1552 19.0683C13.188 19.3707 13.937 19.7661 14.4023 20.2546C14.8675 20.7431 15.1001 21.3781 15.1001 22.1597C15.1001 23.039 14.7861 23.7601 14.158 24.323C13.5346 24.8859 12.6391 25.1674 11.4714 25.1674C10.8991 25.1674 10.3362 25.0952 9.78259 24.951C9.22898 24.8022 8.71258 24.5789 8.2334 24.2811Z" fill="white"/>
<defs>
<filter id="filter0_f_4071_5432" x="1.24992" y="11.2499" width="20.8334" height="19.9999" filterUnits="userSpaceOnUse" color-interpolation-filters="sRGB">
<feFlood flood-opacity="0" result="BackgroundImageFix"/>
<feBlend mode="normal" in="SourceGraphic" in2="BackgroundImageFix" result="shape"/>
<feGaussianBlur stdDeviation="1.04167" result="effect1_foregroundBlur_4071_5432"/>
</filter>
<linearGradient id="paint0_linear_4071_5432" x1="6.22909" y1="10.5834" x2="17.1041" y2="29.4167" gradientUnits="userSpaceOnUse">
<stop stop-color="#058F92"/>
<stop offset="0.5" stop-color="#038489"/>
<stop offset="1" stop-color="#026D71"/>
</linearGradient>
</defs>
</svg>
