<svg width="40" height="40" viewBox="0 0 40 40" fill="none" xmlns="http://www.w3.org/2000/svg">
<path d="M31.2499 5.83398C34.2415 5.83398 36.6666 8.25911 36.6666 11.2507V28.7549C36.6666 31.7465 34.2415 34.1716 31.2499 34.1716H8.74992C5.75838 34.1716 3.33325 31.7465 3.33325 28.7549V11.2507C3.33325 8.25911 5.75838 5.83398 8.74992 5.83398H31.2499ZM31.2499 8.33398H8.74992C7.13909 8.33398 5.83325 9.63982 5.83325 11.2507V28.7549C5.83325 30.3658 7.13909 31.6716 8.74992 31.6716H31.2499C32.8607 31.6716 34.1666 30.3658 34.1666 28.7549V11.2507C34.1666 9.63982 32.8607 8.33398 31.2499 8.33398ZM13.3576 14.7863C14.3524 14.7863 15.0558 14.9219 15.8612 15.3086C16.3798 15.5577 16.5983 16.18 16.3493 16.6986C16.1002 17.2172 15.4779 17.4357 14.9593 17.1866C14.4596 16.9467 14.0599 16.8696 13.3576 16.8696C11.9131 16.8696 10.8516 18.1969 10.8516 19.9902C10.8516 21.7852 11.9145 23.1169 13.3576 23.1169C14.072 23.1169 14.6767 22.8171 14.9913 22.2823L15.0016 22.2573V21.034L14.3753 21.0351C13.8523 21.0351 13.4193 20.6496 13.3449 20.1473L13.3336 19.9934C13.3336 19.4704 13.719 19.0374 14.2214 18.963L14.3753 18.9517H16.0446C16.5676 18.9517 17.0006 19.3372 17.075 19.8395L17.0863 19.9934L17.0841 22.5729L17.0735 22.6651L17.0382 22.8148L17.004 22.9068C16.3767 24.3903 14.9359 25.2002 13.3576 25.2002C10.6475 25.2002 8.76831 22.8457 8.76831 19.9902C8.76831 17.1358 10.6472 14.7863 13.3576 14.7863ZM21.0482 14.9896C21.5712 14.9896 22.0041 15.3751 22.0785 15.8774L22.0898 16.0313V23.9682C22.0898 24.5435 21.6235 25.0099 21.0482 25.0099C20.5252 25.0099 20.0922 24.6244 20.0178 24.1221L20.0065 23.9682V16.0313C20.0065 15.456 20.4729 14.9896 21.0482 14.9896ZM26.0412 14.9896L29.3702 15.0011C29.9455 15.0031 30.4102 15.4711 30.4083 16.0464C30.4064 16.5694 30.0195 17.001 29.517 17.0737L29.363 17.0845L27.0783 17.0757V19.999L28.9499 20.0004C29.4729 20.0004 29.9059 20.3858 29.9803 20.8882L29.9916 21.0421C29.9916 21.5651 29.6062 21.9981 29.1038 22.0725L28.9499 22.0837L27.0783 22.0823L27.0792 23.9414C27.0792 24.4644 26.6938 24.8973 26.1915 24.9717L26.0376 24.983C25.5146 24.983 25.0816 24.5976 25.0072 24.0953L24.9959 23.9414V16.0277C24.9977 15.5047 25.3846 15.0731 25.8872 15.0004L26.0412 14.9896Z" fill="#242424"/>
</svg>
